<svg xmlns="http://www.w3.org/2000/svg" width="188" height="34" viewBox="0 0 188 34" fill="none"><g clip-path="url(#clip0_1367_1176)"><path d="M5.03171 18.0417C6.16491 17.1142 6.41385 15.6014 5.78371 14.4158C5.59047 14.0516 5.64794 13.608 5.94733 13.3179L10.4279 8.97693C11.1608 8.26694 12.2522 8.01397 13.227 8.35801C14.771 8.90274 16.5778 8.54182 17.7737 7.27696C19.2481 5.7153 19.2272 3.27328 17.7284 1.73353C16.0939 0.0554905 13.3645 0.0268205 11.6934 1.64752C10.5062 2.7977 10.1772 4.46562 10.7064 5.90251C11.0546 6.84522 10.8405 7.89591 10.1094 8.60254L5.60614 12.9655C5.29979 13.2623 4.83327 13.323 4.44859 13.1324C3.29972 12.5658 1.85667 12.7462 0.895803 13.6788C-0.347062 14.883 -0.298322 16.8646 1.04376 18.0063C2.17174 18.9625 3.88635 18.9811 5.03171 18.0417Z" fill="#2B318D"></path><path d="M26.9493 16.16C25.6438 17.3186 25.2713 19.0691 25.8335 20.565C26.1886 21.5078 25.9258 22.5669 25.1947 23.2769L20.7141 27.6179C20.4147 27.9079 19.9586 27.9636 19.5809 27.7764C18.3555 27.1659 16.7958 27.4087 15.8384 28.5049C14.8706 29.6146 14.888 31.2776 15.8784 32.3687C17.0569 33.6674 19.1022 33.7144 20.3451 32.512C21.306 31.5812 21.4939 30.183 20.9091 29.0699C20.7124 28.6955 20.775 28.2452 21.0814 27.9484L25.5846 23.5855C26.3157 22.8772 27.3984 22.6714 28.3715 23.007C29.8546 23.5197 31.5743 23.201 32.7631 22.0508C34.4345 20.4318 34.4047 17.7874 32.6745 16.2038C31.0818 14.7518 28.5612 14.7315 26.9493 16.16Z" fill="#2B318D"></path><path d="M24.9445 3.4581C23.6389 4.61671 23.2664 6.36726 23.8286 7.86317C24.1837 8.80591 23.9209 9.86501 23.1898 10.575L18.7093 14.916C18.4098 15.2061 17.9538 15.2617 17.576 15.0745C16.3506 14.464 14.7909 14.7069 13.8335 15.8031C12.8657 16.9128 12.8831 18.5757 13.8735 19.6668C15.052 20.9654 17.0973 21.0126 18.3402 19.8102C19.3011 18.8792 19.4891 17.4811 18.9042 16.3681C18.7075 15.9937 18.7702 15.5434 19.0765 15.2465L23.5797 10.8836C24.3108 10.1753 25.3936 9.96959 26.3666 10.3052C27.8497 10.8179 29.5695 10.4991 30.7584 9.34897C32.4294 7.72993 32.3999 5.08555 30.6696 3.50194C29.0769 2.04821 26.5563 2.02797 24.9445 3.4581Z" fill="#50B748"></path><path d="M64.2825 25.2586L66.9649 26.6247C66.0857 28.2976 65.0693 29.6502 63.9168 30.6772C62.7644 31.7044 61.4675 32.4867 60.0265 33.0232C58.5851 33.5596 56.9558 33.8276 55.135 33.8276C51.0999 33.8276 47.9459 32.5475 45.6708 29.9858C43.3957 27.4241 42.2589 24.5284 42.2589 21.2988C42.2589 18.2597 43.2215 15.5513 45.1485 13.1733C47.5906 10.1495 50.858 8.63672 54.9539 8.63672C59.0498 8.63672 62.5366 10.1866 65.0552 13.2829C66.8446 15.4703 67.7552 18.2007 67.7846 21.4741H45.5314C45.5925 24.2568 46.5099 26.5386 48.2853 28.3179C50.0609 30.0971 52.2524 30.9877 54.8618 30.9877C56.1202 30.9877 57.3456 30.7752 58.5363 30.3518C59.7269 29.9285 60.7399 29.3652 61.5737 28.6619C62.4094 27.957 63.3111 26.8237 64.2825 25.2586ZM64.2825 18.8061C63.8576 17.1619 63.2397 15.8481 62.4269 14.8649C61.6157 13.8816 60.5416 13.089 59.2065 12.4869C57.8714 11.8849 56.4683 11.5847 54.9956 11.5847C52.5673 11.5847 50.482 12.3419 48.738 13.853C47.4637 14.9543 46.4993 16.6053 45.8481 18.8078H64.2825V18.8061Z" fill="#2B318D"></path><path d="M76.4897 0.351562H79.6716V9.2477H84.7181V11.9123H79.6716V33.2074H76.4897V11.9123H72.1484V9.2477H76.4897V0.351562Z" fill="#2B318D"></path><path d="M89.4902 0H92.6724V13.5424C93.9606 11.8981 95.3775 10.6686 96.9231 9.85408C98.4688 9.03951 100.144 8.63139 101.947 8.63139C103.75 8.63139 105.435 9.08671 106.868 9.99743C108.301 10.9081 109.357 12.1291 110.038 13.6638C110.72 15.1985 111.061 17.6017 111.061 20.8752V33.2068H107.879V21.7775C107.879 19.0167 107.766 17.1751 107.538 16.2492C107.145 14.6639 106.427 13.4716 105.39 12.6705C104.353 11.8711 102.991 11.4697 101.31 11.4697C99.3847 11.4697 97.6613 12.087 96.1382 13.3198C94.6151 14.5526 93.6106 16.0805 93.1268 17.9002C92.8238 19.0757 92.6724 21.2479 92.6724 24.4185V33.2049H89.4902V0Z" fill="#2B318D"></path><path d="M129.584 8.63086C133.395 8.63086 136.552 9.96654 139.057 12.6396C141.334 15.0766 142.472 17.9621 142.472 21.2946C142.472 24.6271 141.269 27.5666 138.864 30.0693C136.458 32.5721 133.365 33.8235 129.586 33.8235C125.807 33.8235 122.691 32.5721 120.285 30.0693C117.88 27.5666 116.677 24.6406 116.677 21.2946C116.677 17.9486 117.815 15.0985 120.092 12.6632C122.595 9.97498 125.76 8.63086 129.584 8.63086ZM129.574 11.648C126.928 11.648 124.655 12.5958 122.754 14.488C120.853 16.3819 119.902 18.6721 119.902 21.3587C119.902 23.0907 120.336 24.7063 121.203 26.2039C122.07 27.7015 123.239 28.8568 124.715 29.673C126.19 30.4875 127.811 30.8958 129.574 30.8958C131.337 30.8958 132.958 30.4875 134.432 29.673C135.906 28.8584 137.078 27.7015 137.945 26.2039C138.812 24.7063 139.245 23.0924 139.245 21.3587C139.245 18.6721 138.291 16.3819 136.382 14.488C134.474 12.5958 132.204 11.648 129.574 11.648Z" fill="#2B318D"></path><path d="M160.792 11.8689L158.747 13.9163C157.045 12.3158 155.382 11.5164 153.757 11.5164C152.723 11.5164 151.838 11.847 151.102 12.5081C150.366 13.1692 149.997 13.9399 149.997 14.8202C149.997 15.5994 150.3 16.3398 150.907 17.0447C151.514 17.7648 152.791 18.608 154.733 19.5778C157.102 20.7667 158.711 21.9118 159.562 23.0131C160.397 24.1296 160.815 25.3843 160.815 26.779C160.815 28.7471 160.102 30.4134 158.674 31.7777C157.247 33.1419 155.464 33.825 153.325 33.825C151.898 33.825 150.536 33.5251 149.238 32.9228C147.941 32.3208 146.867 31.4911 146.016 30.4335L148.016 28.2311C149.642 30.0069 151.365 30.8958 153.187 30.8958C154.463 30.8958 155.549 30.4994 156.446 29.7067C157.342 28.9141 157.79 27.9815 157.79 26.9106C157.79 26.0302 157.494 25.2443 156.902 24.5545C156.31 23.88 154.973 23.0283 152.893 21.9995C150.66 20.8848 149.142 19.7835 148.338 18.6957C147.533 17.6097 147.131 16.3684 147.131 14.9737C147.131 13.154 147.772 11.6412 149.055 10.4371C150.338 9.23463 151.957 8.63086 153.915 8.63086C156.194 8.63086 158.486 9.71021 160.792 11.8689Z" fill="#2B318D"></path><path d="M166.427 0H169.609V13.5424C170.897 11.8981 172.314 10.6686 173.86 9.85408C175.405 9.03951 177.08 8.63139 178.883 8.63139C180.687 8.63139 182.372 9.08671 183.804 9.99743C185.237 10.9081 186.294 12.1291 186.974 13.6638C187.657 15.1985 187.998 17.6017 187.998 20.8752V33.2068H184.816V21.7775C184.816 19.0167 184.703 17.1751 184.474 16.2492C184.081 14.6639 183.364 13.4716 182.327 12.6705C181.289 11.8711 179.928 11.4697 178.246 11.4697C176.321 11.4697 174.598 12.087 173.075 13.3198C171.552 14.5526 170.547 16.0805 170.063 17.9002C169.76 19.0757 169.609 21.2479 169.609 24.4185V33.2049H166.427V0Z" fill="#2B318D"></path></g><defs><clipPath id="clip0_1367_1176"><rect width="188" height="34" fill="white"></rect></clipPath></defs></svg>